# xmcd
#
# Track frame offsets:
#	150
#	13738
#	41943
#	57484
#	71888
#	88318
#	99682
#	115295
#	128376
#	148482
#	164490
#	184130
#	195183
#	211498
#
# Disc length: 3068 seconds
#
# Revision: 0
# Processed by: cddbd v1.5.2PL0 Copyright (c) Steve Scherf et al.
# Submitted via: audiograbber 1.83.01
#
DISCID=da0bfa0e
DTITLE=Dubliners - Seven Drunken Nights [CD 2) - Parcel Of Rogues
DYEAR=1999
DGENRE=Folk
TTITLE0=Molly Malone
TTITLE1=The Town I Loved So Well
TTITLE2=The Downfall Of Paris
TTITLE3=Dainty Davy [mono]
TTITLE4=Springhill Disaster
TTITLE5=High Germany
TTITLE6=Danny Farrell
TTITLE7=Drops Of Brandy/Lady Carberry
TTITLE8=The Foggy Dew
TTITLE9=The Sun Is Burning
TTITLE10=Parcel Of Rogues
TTITLE11=Avondale
TTITLE12=Down By The Glenside
TTITLE13=Raglan Road
EXTD=
EXTT0=
EXTT1=
EXTT2=
EXTT3=
EXTT4=
EXTT5=
EXTT6=
EXTT7=
EXTT8=
EXTT9=
EXTT10=
EXTT11=
EXTT12=
EXTT13=
PLAYORDER=
